<svg width="150" height="150" viewBox="0 0 150 150" fill="none" xmlns="http://www.w3.org/2000/svg">
<g clip-path="url(#clip0_44_17506)">
<rect width="150" height="150" fill="#E9EBF0"/>
<path opacity="0.8" d="M126.959 122.162C126.041 121.473 125 120.947 123.905 120.552C115.512 117.515 105.853 113.087 94.9352 107.272C91.7627 105.584 89.795 102.416 89.795 98.9792V92.8434C89.795 92.4719 89.959 92.133 90.1776 91.8244C91.8538 89.4475 93.694 87.8158 95.1926 84.2199C96.5773 80.8957 96.493 77.9951 97.3744 74.2385C98.4357 75.3531 100.69 71.981 101.565 64.0745C101.861 61.3978 100.586 60.1724 99.0324 60.407C98.7955 60.4439 98.586 60.2593 98.6111 60.0333L99.2374 54.4994C99.4378 53.2935 99.5425 52.0594 99.5425 50.7993C99.5425 37.9412 89.7358 27.9293 75.3149 27.5208C75.2921 27.5208 75.2694 27.5208 75.2489 27.5208C75.2261 27.5208 75.2033 27.5208 75.1828 27.5208C61.9417 26.567 50.9552 37.9433 50.9552 50.7993C50.9552 52.0594 51.06 53.2935 51.2604 54.4994L51.8867 60.0333C51.9117 60.2593 51.7022 60.4418 51.4653 60.407C49.9121 60.1702 48.6367 61.3978 48.9328 64.0745C49.8074 71.981 52.0643 75.3531 53.1233 74.2385C54.0047 77.9973 53.9546 80.6697 55.3416 83.994C56.8402 87.5898 58.6462 89.4475 60.3201 91.8244C60.5387 92.133 60.7027 92.4719 60.7027 92.8434V98.9792C60.7027 102.416 58.735 105.584 55.5625 107.272C44.6443 113.084 34.9856 117.515 26.5932 120.552C25.4977 120.947 24.4569 121.473 23.5391 122.162C20.69 124.302 18.9819 127.583 19.0001 131.105L19.1095 152.465H131.391L131.5 131.105C131.518 127.583 129.81 124.302 126.961 122.162H126.959Z" fill="white"/>
</g>
<rect x="0.5" y="0.5" width="149" height="149" stroke="#E9EBF0"/>
<defs>
<clipPath id="clip0_44_17506">
<rect width="150" height="150" fill="white"/>
</clipPath>
</defs>
</svg>
